<svg width="32" height="32" xmlns="http://www.w3.org/2000/svg" viewBox="0 0 32 32">
  <!-- Background circle -->
  <circle cx="16" cy="16" r="15" fill="#2e8555"/>
  
  <!-- Simplified wolf head -->
  <g transform="translate(16, 16) scale(0.35)">
    <!-- Wolf head outline -->
    <path d="M -20 -10 
             L -22 -18 
             L -20 -22 
             L -15 -20
             L -10 -22
             L 0 -24
             L 10 -22
             L 15 -20
             L 20 -22
             L 22 -18
             L 20 -10
             L 15 -5
             L 10 5
             L 0 8
             L -10 5
             L -15 -5
             Z" 
          fill="#ffffff"/>
    
    <!-- Ears -->
    <path d="M -15 -20 L -17 -27 L -12 -25 Z" fill="#ffffff"/>
    <path d="M 15 -20 L 17 -27 L 12 -25 Z" fill="#ffffff"/>
    
    <!-- Eyes -->
    <circle cx="-7" cy="-8" r="3" fill="#1a1a1a"/>
    <circle cx="7" cy="-8" r="3" fill="#1a1a1a"/>
    
    <!-- Nose -->
    <path d="M -3 -3 L 0 0 L 3 -3 Z" fill="#1a1a1a"/>
  </g>
</svg>